# xmcd
#
# Track frame offsets:
#	150
#	18331
#	38317
#	54949
#	72632
#	87690
#	102599
#	119101
#	139386
#	154005
#	173035
#	190841
#	208555
#	224878
#
# Disc length: 3214 seconds
#
# Revision: 1
# Processed by: cddbd v1.5.2PL0 Copyright (c) Steve Scherf et al.
# Submitted via: audiograbber 1.83.01
#
DISCID=d50c8c0e
DTITLE=папаиыаммоу циаммгс [2007] - айола с' ацапы
DYEAR=2007
DGENRE=
TTITLE0=айола с' ацапы
TTITLE1=то йояли соу еимаи жытиа
TTITLE2=цуяисе нама
TTITLE3=лг се ды лпяоста лоу
TTITLE4=де ха ле непеяасеис
TTITLE5=сгйы йаи вояеье
TTITLE6=паеи се непеяаса
TTITLE7=дуо немои
TTITLE8=пемте кепта
TTITLE9=мувта ека ма ле паяеис
TTITLE10=ецимес йайиа сумгхеиа
TTITLE11=пиасе ле
TTITLE12=туваиа
TTITLE13=йкеимолаи
EXTD=
EXTT0=
EXTT1=
EXTT2=
EXTT3=
EXTT4=
EXTT5=
EXTT6=
EXTT7=
EXTT8=
EXTT9=
EXTT10=
EXTT11=
EXTT12=
EXTT13=
PLAYORDER=
